<svg width="233" height="232" viewBox="0 0 233 232" fill="none" xmlns="http://www.w3.org/2000/svg">
<g opacity="0.1" clip-path="url(#clip0_1_399)">
<path d="M192.746 128.647C212.751 136.784 224.123 154.84 217.891 168.805C211.796 182.782 190.488 187.601 170.483 179.464C150.478 171.328 139.106 153.271 145.338 139.306C151.582 125.21 172.741 120.51 192.746 128.647Z" fill="white"/>
<path d="M160.305 211.165C165.871 198.461 154.782 181.882 135.576 174.081C116.37 166.281 96.3785 170.294 90.8126 182.998C85.2467 195.702 96.3365 212.281 115.542 220.082C134.748 227.883 154.74 223.87 160.305 211.165Z" fill="white"/>
<path d="M147.711 97.5283C150.863 111.677 171.064 119.171 192.933 114.27C214.664 109.357 229.873 93.9547 226.721 79.8064C223.569 65.658 203.368 58.1639 181.5 63.0644C159.769 67.9772 144.56 83.38 147.711 97.5283Z" fill="white"/>
<path d="M145.931 61.9795C166.679 57.2424 181.132 42.5639 178.195 29.0951C175.259 15.6264 155.982 8.61153 135.246 13.2177C114.499 17.9549 100.046 32.6333 102.982 46.1021C105.93 59.4398 125.195 66.5857 145.931 61.9795Z" fill="white"/>
<path d="M135.598 118.491L135.904 115.086C135.904 115.086 130.245 45.7801 47.9405 38.6449C-0.444792 34.031 16.9377 74.4157 16.9377 74.4157C16.9377 74.4157 32.6194 92.1994 31.4065 105.691L31.5118 109.134C30.2988 122.626 11.6967 137.327 11.6967 137.327C11.6967 137.327 -13.0097 173.796 35.2738 178.005C117.794 185.82 135.598 118.491 135.598 118.491Z" fill="white"/>
</g>
<defs>
<clipPath id="clip0_1_399">
<rect width="212.926" height="214.794" fill="white" transform="translate(232.996 19.2324) rotate(95.1371)"/>
</clipPath>
</defs>
</svg>
