<svg width="34" height="46" viewBox="0 0 34 46" fill="none" xmlns="http://www.w3.org/2000/svg">
<path id="icon" d="M33.0333 0.670604L33.0333 0.670597C32.7623 0.461963 32.2706 0.443139 31.9346 0.672342M33.0333 0.670604L31.9346 0.672348L31.9346 0.672342M33.0333 0.670604C33.181 0.784281 33.2593 0.868522 33.3119 0.948707C33.3618 1.02486 33.4048 1.1225 33.4461 1.28456C33.4476 1.30221 33.4493 1.32936 33.4512 1.3675C33.455 1.44433 33.4588 1.55273 33.4623 1.69098C33.4693 1.96672 33.4753 2.35046 33.48 2.81516C33.4892 3.74399 33.493 4.9895 33.489 6.32704L33.4749 11.0334L33.3044 11.2653L33.3044 11.2654M33.0333 0.670604L33.3044 11.2654M31.9346 0.672342C31.9366 0.671033 31.9332 0.673857 31.9234 0.682035M31.9346 0.672342L31.9234 0.682035M33.3044 11.2654C33.3065 11.2624 33.3031 11.266 33.2921 11.2774C33.2701 11.3001 33.2181 11.3539 33.1205 11.4493C32.992 11.5749 32.8125 11.7462 32.588 11.9576C32.1394 12.38 31.5178 12.9565 30.78 13.6354C29.3048 14.9929 27.3693 16.7564 25.4339 18.5089C23.4986 20.2613 21.5645 22.0018 20.0922 23.3132C19.3558 23.9691 18.7362 24.5167 18.29 24.9045C18.0666 25.0987 17.8887 25.251 17.7622 25.3563C17.6986 25.4093 17.6511 25.4478 17.6187 25.4729C17.6169 25.4743 17.6151 25.4757 17.6135 25.4769C17.3516 25.5764 17.1106 25.5608 16.841 25.4164C16.8355 25.4122 16.8245 25.404 16.8067 25.3899C16.7697 25.3605 16.7179 25.318 16.651 25.2617C16.5176 25.1494 16.3334 24.9904 16.1043 24.7901C15.6467 24.3899 15.0173 23.8309 14.2731 23.165C12.7852 21.8335 10.8427 20.0783 8.90772 18.3193C6.97269 16.5603 5.04601 14.7983 3.58956 13.4531C2.86114 12.7804 2.25143 12.2129 1.81742 11.8026C1.60013 11.5972 1.42873 11.4329 1.30909 11.3151C1.24895 11.256 1.2045 11.2111 1.17477 11.1799C1.17059 11.1755 1.16691 11.1716 1.16371 11.1682C1.14658 11.1206 1.11842 10.9775 1.09975 10.5122C1.07413 9.87402 1.06484 8.72369 1.05185 6.5355C1.04429 5.26374 1.04367 4.0556 1.04875 3.13397C1.05129 2.67297 1.05524 2.28488 1.06044 1.99685C1.06303 1.85267 1.06591 1.7352 1.06901 1.64693C1.07056 1.60275 1.07211 1.56743 1.07362 1.54059C1.07436 1.52722 1.07505 1.51692 1.07563 1.50933C1.07626 1.50123 1.07658 1.49866 1.07642 1.49997L0.579914 1.44099L1.0764 1.50014C1.12977 1.05217 1.31174 0.795162 1.65684 0.615586C1.98744 0.44361 2.31119 0.461341 2.63648 0.683692C2.63381 0.681867 2.63778 0.685199 2.65003 0.695478C2.67156 0.71355 2.71868 0.753098 2.80029 0.823856C2.91316 0.921717 3.07005 1.05973 3.26661 1.23402C3.65944 1.58233 4.20676 2.07201 4.86897 2.66746C6.19318 3.85816 7.97446 5.46971 9.89305 7.21457C11.8125 8.96027 13.5655 10.5475 14.8436 11.6985C15.4826 12.2739 16.0034 12.7408 16.3673 13.0642C16.549 13.2257 16.6927 13.3525 16.7929 13.4394C16.8425 13.4824 16.8838 13.5178 16.9145 13.5432C16.9291 13.5553 16.9456 13.5688 16.9611 13.5806C16.9679 13.5858 16.9818 13.5962 16.9986 13.6073C17.0062 13.6122 17.0238 13.6236 17.0472 13.6356C17.0588 13.6416 17.0802 13.652 17.1081 13.662C17.1282 13.6692 17.1919 13.6913 17.2769 13.6913C17.3619 13.6913 17.4255 13.6692 17.4456 13.662C17.4736 13.652 17.4949 13.6416 17.5065 13.6356C17.5299 13.6236 17.5476 13.6122 17.5551 13.6073C17.572 13.5962 17.5858 13.5858 17.5926 13.5806C17.6082 13.5688 17.6247 13.5553 17.6393 13.5432C17.67 13.5178 17.7112 13.4824 17.7609 13.4394C17.861 13.3525 18.0048 13.2257 18.1865 13.0642C18.5503 12.7408 19.0712 12.2739 19.7101 11.6985C20.9882 10.5475 22.7412 8.96027 24.6607 7.21458C26.5793 5.46974 28.3625 3.85693 29.6899 2.66416M33.3044 11.2654L29.6899 2.66416M32.7359 20.4633L32.7357 20.4632C32.6694 20.4485 32.4417 20.4423 32.2653 20.469C32.1878 20.4807 32.1499 20.4846 32.1332 20.485C32.0458 20.5353 31.8542 20.6791 31.368 21.102C30.5387 21.8233 28.9544 23.2638 25.7728 26.1563C25.277 26.6071 24.7424 27.0932 24.1658 27.6173L23.8295 27.2473L24.1658 27.6173C22.3796 29.2408 20.7488 30.7169 19.5602 31.7873C18.966 32.3225 18.4817 32.7567 18.1436 33.0575C17.9748 33.2077 17.8413 33.3256 17.7483 33.4064C17.7022 33.4465 17.6639 33.4794 17.6355 33.5031C17.6219 33.5144 17.6065 33.527 17.592 33.5382C17.5857 33.5431 17.5726 33.553 17.5566 33.5637C17.5496 33.5684 17.5325 33.5796 17.5099 33.5915C17.4987 33.5974 17.4776 33.608 17.4499 33.6183C17.4313 33.6252 17.3648 33.6496 17.2755 33.6496C17.1819 33.6496 17.1123 33.6227 17.0949 33.616L17.0945 33.6158C17.0671 33.6052 17.0462 33.5943 17.0356 33.5885C17.0138 33.5767 16.9973 33.5656 16.9906 33.561C16.9753 33.5506 16.9626 33.5408 16.9563 33.5359C16.9418 33.5247 16.9262 33.5118 16.9119 33.4998C16.882 33.4748 16.8414 33.4398 16.7921 33.3967C16.6928 33.31 16.5498 33.1834 16.3685 33.0219C16.0057 32.6985 15.4856 32.2315 14.8472 31.6559C13.5701 30.5045 11.8172 28.9166 9.89673 27.1703L10.2331 26.8004L9.89672 27.1703C7.97692 25.4245 6.19771 23.8111 4.87779 22.6182C4.21777 22.0217 3.67292 21.5307 3.28286 21.1808C3.08774 21.0058 2.9319 20.8667 2.81996 20.7675C2.7639 20.7178 2.71961 20.6788 2.68723 20.6507C2.66238 20.6291 2.64917 20.6179 2.64406 20.6136C2.64166 20.6116 2.64104 20.6111 2.64185 20.6117C2.54358 20.5356 2.5031 20.5186 2.46505 20.5081C2.40955 20.4927 2.31711 20.4811 2.09416 20.4804L32.7359 20.4633ZM32.7359 20.4633C32.8 20.4775 32.9447 20.552 33.1091 20.7083C33.2682 20.8596 33.377 21.0227 33.4164 21.1342M32.7359 20.4633L33.4164 21.1342M33.4164 21.1342C33.4206 21.1462 33.4376 21.2067 33.453 21.3881C33.4678 21.5624 33.4792 21.8183 33.487 22.2017C33.5025 22.9673 33.503 24.2041 33.4946 26.2362L33.9946 26.2383M33.4164 21.1342L33.9946 26.2383M33.9946 26.2383L33.4946 26.2362L33.475 30.9881L33.3537 31.1582C33.3502 31.162 33.3399 31.1734 33.3189 31.1949C33.285 31.2299 33.2365 31.2783 33.173 31.3403C33.0463 31.4639 32.868 31.6338 32.6441 31.8443C32.197 32.2649 31.5747 32.8418 30.8348 33.5227C29.3553 34.8842 27.4096 36.6581 25.4633 38.4223C23.5169 40.1865 21.5707 41.9403 20.0904 43.2615C19.3501 43.9223 18.7274 44.474 18.2797 44.8644C18.0556 45.0598 17.8773 45.2132 17.7509 45.3191C17.6873 45.3724 17.6398 45.4111 17.6075 45.4364C17.6063 45.4373 17.6051 45.4382 17.604 45.4391C17.3862 45.5203 17.1675 45.5203 16.9498 45.4391C16.9486 45.4382 16.9475 45.4373 16.9463 45.4364C16.914 45.4111 16.8665 45.3724 16.8029 45.3191C16.6764 45.2132 16.4981 45.0598 16.274 44.8643C15.8264 44.4739 15.2036 43.9223 14.4633 43.2615C12.9829 41.9402 11.0368 40.1864 9.09042 38.4222C7.14404 36.6579 5.19834 34.8841 3.71889 33.5225C2.97899 32.8416 2.35671 32.2648 1.90958 31.8442C1.68577 31.6336 1.50746 31.4638 1.38077 31.3402C1.3172 31.2782 1.26872 31.2298 1.2348 31.1948C1.21391 31.1733 1.20355 31.1619 1.20005 31.1581L1.07937 30.9889L1.07938 26.1033C1.07938 25.868 1.07933 25.6433 1.07928 25.4286C1.07879 23.0491 1.07856 21.9076 1.14475 21.2991C1.18017 20.9735 1.22834 20.8846 1.24916 20.854C1.2748 20.8164 1.29663 20.7998 1.40564 20.7169C1.43692 20.6931 1.47536 20.6639 1.52312 20.6271C1.64357 20.5344 1.687 20.5162 1.72336 20.5059M33.9946 26.2383L1.72336 20.5059M29.6899 2.66416C30.3537 2.06768 30.9029 1.5768 31.2977 1.22716M29.6899 2.66416L31.2977 1.22716M31.2977 1.22716C31.4953 1.0522 31.6533 0.91352 31.7672 0.814981M31.2977 1.22716L31.7672 0.814981M31.7672 0.814981C31.8542 0.73973 31.9028 0.699153 31.9234 0.682035M31.7672 0.814981L31.9234 0.682035M1.72336 20.5059C1.77548 20.491 1.86251 20.4798 2.09412 20.4804L1.72336 20.5059ZM17.5903 25.4943C17.5843 25.4984 17.5854 25.4973 17.5919 25.4931C17.5912 25.4936 17.5907 25.494 17.5903 25.4943ZM1.17621 11.1922C1.17435 11.1899 1.17149 11.1864 1.1679 11.1786C1.1711 11.1834 1.17445 11.1887 1.17786 11.1944C1.17746 11.1937 1.1769 11.193 1.17621 11.1922ZM17.5791 45.4579C17.5726 45.4625 17.5738 45.4613 17.5809 45.4567C17.5801 45.4572 17.5796 45.4576 17.5791 45.4579ZM16.907 45.4221C16.9074 45.4222 16.9077 45.4224 16.908 45.4225C16.9077 45.4224 16.9074 45.4223 16.9071 45.4221L16.907 45.4221ZM16.9729 45.4566C16.98 45.4613 16.9812 45.4625 16.9746 45.4579C16.9742 45.4576 16.9736 45.4572 16.9729 45.4566Z" stroke="white"/>
</svg>
