<svg width="14" height="14" viewBox="0 0 14 14" fill="none" xmlns="http://www.w3.org/2000/svg">
<path d="M7.40167 1.85104C7.81675 0.589023 8.93225 -0.201842 9.88345 0.101043C10.8347 0.395514 11.2757 1.66595 10.8606 2.92797C10.4455 4.18998 9.33003 4.98085 8.37882 4.67797C7.41897 4.37508 6.9866 3.11306 7.40167 1.85104Z" fill="#FE4CB5"/>
<path d="M12.9954 3.37373C12.1306 3.1045 11.1102 3.87013 10.7125 5.08166C10.3147 6.2932 10.6952 7.48791 11.5599 7.75714C12.4246 8.02638 13.445 7.26075 13.8428 6.04921C14.2406 4.83767 13.8601 3.64296 12.9954 3.37373Z" fill="#FE4CB5"/>
<path d="M5.62917 4.76197C6.53714 4.49274 6.90897 3.22231 6.45931 1.91822C6.00965 0.622547 4.91144 -0.218799 4.00347 0.0504316C3.0955 0.319662 2.72367 1.5901 3.17333 2.89418C3.62299 4.18985 4.7212 5.0312 5.62917 4.76197Z" fill="#FE4CB5"/>
<path d="M3.31091 5.06483C2.87854 3.82805 1.83222 3.02877 0.967486 3.28117C0.102755 3.53358 -0.243137 4.74512 0.180581 5.98189C0.612947 7.21867 1.65927 8.01795 2.524 7.76555C3.38009 7.51314 3.73463 6.30161 3.31091 5.06483Z" fill="#FE4CB5"/>
<path d="M7.07225 5.38452H6.84742C6.84742 5.38452 2.34217 6.10808 2.35946 11.1562C2.34217 14.1261 4.88448 12.8473 4.88448 12.8473C4.88448 12.8473 5.95675 11.7956 6.84742 11.7956L7.07225 11.7703C7.96292 11.7703 9.03519 12.822 9.03519 12.822C9.03519 12.822 11.5689 14.1261 11.5602 11.1646C11.5861 6.09967 7.07225 5.38452 7.07225 5.38452Z" fill="#FE4CB5"/>
</svg>
